<svg width="1447" height="1078" viewBox="0 0 1447 1078" fill="none" xmlns="http://www.w3.org/2000/svg">
<path d="M1446.53 947.187H0V947.911H1446.53V947.187Z" fill="#EBEBEB"/>
<path d="M441.191 964.661H410.872V965.385H441.191V964.661Z" fill="#EBEBEB"/>
<path d="M1348.69 983.64H1297.04V984.363H1348.69V983.64Z" fill="#EBEBEB"/>
<path d="M1104.83 965.009H933.706V965.732H1104.83V965.009Z" fill="#EBEBEB"/>
<path d="M676.657 981.499H545.746V982.222H676.657V981.499Z" fill="#EBEBEB"/>
<path d="M404.102 976.928H358.739V977.651H404.102V976.928Z" fill="#EBEBEB"/>
<path d="M1233.43 981.499H1168.16V982.222H1233.43V981.499Z" fill="#EBEBEB"/>
<path d="M341.873 976.581H187.846V977.304H341.873V976.581Z" fill="#EBEBEB"/>
<path d="M685.655 818.157H127.034C122.658 818.149 118.464 816.405 115.372 813.308C112.28 810.211 110.544 806.014 110.544 801.638V16.3747C110.582 12.0236 112.335 7.86327 115.423 4.79732C118.51 1.73137 122.683 0.00745364 127.034 0H685.655C690.036 0 694.238 1.74043 697.336 4.83841C700.434 7.93639 702.174 12.1382 702.174 16.5194V16.5194V801.638C702.174 806.019 700.434 810.221 697.336 813.319C694.238 816.417 690.036 818.157 685.655 818.157V818.157ZM127.034 0.578614C122.85 0.586278 118.839 2.25388 115.883 5.21539C112.927 8.17691 111.267 12.1903 111.267 16.3747V801.638C111.267 805.822 112.927 809.835 115.883 812.797C118.839 815.758 122.85 817.426 127.034 817.434H685.655C689.839 817.418 693.848 815.749 696.807 812.79C699.766 809.831 701.436 805.822 701.451 801.638V16.3747C701.436 12.19 699.766 8.18107 696.807 5.22203C693.848 2.26298 689.839 0.593859 685.655 0.578614H127.034Z" fill="#EBEBEB"/>
<path d="M1311.45 818.157H752.803C748.426 818.142 744.233 816.396 741.139 813.302C738.044 810.207 736.299 806.014 736.283 801.638V16.3747C736.329 12.021 738.089 7.86066 741.181 4.79551C744.273 1.73036 748.449 0.00737235 752.803 0H1311.45C1315.8 0.0150569 1319.96 1.74234 1323.04 4.80748C1326.13 7.87261 1327.88 12.0286 1327.91 16.3747V801.638C1327.92 803.803 1327.49 805.948 1326.67 807.95C1325.84 809.953 1324.63 811.773 1323.1 813.307C1321.58 814.84 1319.76 816.058 1317.76 816.891C1315.76 817.723 1313.62 818.153 1311.45 818.157V818.157ZM752.803 0.578614C748.618 0.593859 744.609 2.26298 741.65 5.22203C738.691 8.18107 737.022 12.19 737.007 16.3747V801.638C737.022 805.822 738.691 809.831 741.65 812.79C744.609 815.749 748.618 817.418 752.803 817.434H1311.45C1315.64 817.418 1319.65 815.749 1322.6 812.79C1325.56 809.831 1327.23 805.822 1327.25 801.638V16.3747C1327.23 12.19 1325.56 8.18107 1322.6 5.22203C1319.65 2.26298 1315.64 0.593859 1311.45 0.578614H752.803Z" fill="#EBEBEB"/>
<path d="M589.576 85.7213H224.357V632.336H589.576V85.7213Z" fill="#E6E6E6"/>
<path d="M581.476 85.7213H216.256V632.336H581.476V85.7213Z" fill="#F5F5F5"/>
<path d="M566.895 102.096H230.808V615.99H566.895V102.096Z" fill="white"/>
<path d="M236.97 102.067H230.837V615.961H236.97V102.067Z" fill="#E6E6E6"/>
<path d="M575.429 456.525H222.274V478.483H575.429V456.525Z" fill="#F5F5F5"/>
<path opacity="0.4" d="M575.458 60.8989H201.096V173.323H575.458V60.8989Z" fill="#F0F0F0"/>
<path d="M200.373 58.6423H605.401C605.955 58.6696 606.48 58.9001 606.875 59.2896C607.27 59.6792 607.507 60.2006 607.542 60.7542V60.7542C607.542 61.3527 607.304 61.9267 606.881 62.3499C606.458 62.773 605.884 63.0108 605.286 63.0108H200.257C199.664 63.0032 199.097 62.7621 198.68 62.3397C198.264 61.9173 198.03 61.3477 198.03 60.7542V60.7542C198.074 60.1685 198.342 59.6224 198.779 59.2291C199.215 58.8359 199.786 58.6257 200.373 58.6423V58.6423Z" fill="#E6E6E6"/>
<path d="M186.92 60.7542C186.915 62.9743 187.567 65.1463 188.796 66.9954C190.025 68.8445 191.774 70.2878 193.823 71.1426C195.872 71.9975 198.128 72.2256 200.307 71.7981C202.486 71.3706 204.488 70.3067 206.062 68.7409C207.636 67.1751 208.71 65.1777 209.149 63.0014C209.588 60.8251 209.371 58.5675 208.527 56.5142C207.683 54.4609 206.249 52.7041 204.406 51.4659C202.563 50.2278 200.395 49.5638 198.174 49.5581V49.5581C196.7 49.5543 195.24 49.8409 193.877 50.4015C192.513 50.9621 191.274 51.7857 190.229 52.8254C189.184 53.865 188.354 55.1003 187.786 56.4608C187.218 57.8212 186.924 59.2801 186.92 60.7542V60.7542Z" fill="#E6E6E6"/>
<path d="M586.568 73.4258C587.349 73.4267 588.1 73.1266 588.666 72.5879C589.232 72.0491 589.568 71.3131 589.605 70.5328V63.9077C589.568 63.1273 589.232 62.3914 588.666 61.8526C588.1 61.3138 587.349 61.0137 586.568 61.0146V61.0146C586.176 60.995 585.784 61.0553 585.416 61.1919C585.048 61.3285 584.712 61.5384 584.428 61.8091C584.143 62.0797 583.917 62.4053 583.763 62.7661C583.609 63.1269 583.529 63.5153 583.53 63.9077V70.5617C583.53 71.329 583.835 72.0649 584.377 72.6074C584.92 73.15 585.656 73.4548 586.423 73.4548L586.568 73.4258Z" fill="#E6E6E6"/>
<path d="M234.338 73.4258C235.105 73.4258 235.841 73.121 236.383 72.5785C236.926 72.0359 237.231 71.3 237.231 70.5328V63.9076C237.231 63.1404 236.926 62.4045 236.383 61.862C235.841 61.3194 235.105 61.0146 234.338 61.0146C233.57 61.0146 232.835 61.3194 232.292 61.862C231.749 62.4045 231.445 63.1404 231.445 63.9076V70.417C231.445 71.1843 231.749 71.9202 232.292 72.4627C232.835 73.0053 233.57 73.3101 234.338 73.3101V73.4258Z" fill="#E6E6E6"/>
<path d="M539.295 60.7542C539.289 62.9743 539.942 65.1463 541.171 66.9954C542.399 68.8445 544.149 70.2878 546.198 71.1426C548.247 71.9975 550.503 72.2256 552.681 71.7981C554.86 71.3706 556.863 70.3067 558.437 68.7409C560.011 67.1751 561.085 65.1777 561.524 63.0014C561.962 60.8251 561.746 58.5675 560.902 56.5142C560.057 54.4609 558.623 52.7041 556.78 51.4659C554.938 50.2278 552.769 49.5638 550.549 49.5581V49.5581C549.075 49.5543 547.614 49.8409 546.251 50.4015C544.888 50.9621 543.648 51.7857 542.603 52.8254C541.558 53.865 540.728 55.1003 540.16 56.4608C539.593 57.8212 539.299 59.2801 539.295 60.7542V60.7542Z" fill="#E6E6E6"/>
<path d="M1241.79 698.095H1136.13V932.317H1241.79V698.095Z" fill="#E6E6E6"/>
<path d="M1221.51 932.346H700.525V947.187H1221.51V932.346Z" fill="#E6E6E6"/>
<path d="M1136.13 698.124H680.216V932.346H1136.13V698.124Z" fill="#F5F5F5"/>
<path d="M1094.62 726.939H721.76V803.749H1094.62V726.939Z" fill="#E6E6E6"/>
<path d="M1094.62 826.691H721.76V903.502H1094.62V826.691Z" fill="#E6E6E6"/>
<path d="M955.664 760.093H860.656C858.083 760.093 855.998 762.179 855.998 764.751V765.966C855.998 768.539 858.083 770.624 860.656 770.624H955.664C958.236 770.624 960.322 768.539 960.322 765.966V764.751C960.322 762.179 958.236 760.093 955.664 760.093Z" fill="#F5F5F5"/>
<path d="M955.664 859.817H860.656C858.083 859.817 855.998 861.902 855.998 864.475V865.69C855.998 868.262 858.083 870.348 860.656 870.348H955.664C958.236 870.348 960.322 868.262 960.322 865.69V864.475C960.322 861.902 958.236 859.817 955.664 859.817Z" fill="#F5F5F5"/>
<path d="M1010.17 664.506C1023.08 664.506 1033.54 654.041 1033.54 641.131C1033.54 628.22 1023.08 617.755 1010.17 617.755C997.259 617.755 986.793 628.22 986.793 641.131C986.793 654.041 997.259 664.506 1010.17 664.506Z" fill="#F5F5F5"/>
<path d="M967.988 659.212C980.851 659.212 991.277 648.785 991.277 635.923C991.277 623.061 980.851 612.634 967.988 612.634C955.126 612.634 944.699 623.061 944.699 635.923C944.699 648.785 955.126 659.212 967.988 659.212Z" fill="#F5F5F5"/>
<path d="M855.391 669.974C868.253 669.974 878.68 659.548 878.68 646.685C878.68 633.823 868.253 623.396 855.391 623.396C842.528 623.396 832.101 633.823 832.101 646.685C832.101 659.548 842.528 669.974 855.391 669.974Z" fill="#F5F5F5"/>
<path d="M915.421 680.737C928.284 680.737 938.711 670.31 938.711 657.448C938.711 644.585 928.284 634.158 915.421 634.158C902.559 634.158 892.132 644.585 892.132 657.448C892.132 670.31 902.559 680.737 915.421 680.737Z" fill="#F5F5F5"/>
<path d="M1072.25 644.544C1072.25 644.544 1068.49 698.124 923.956 698.124C779.419 698.124 775.658 644.544 775.658 644.544H1072.25Z" fill="#E6E6E6"/>
<path d="M580.058 703.968H527.318V932.693H580.058V703.968Z" fill="#E6E6E6"/>
<path d="M569.904 932.693H227.828V947.187H569.904V932.693Z" fill="#E6E6E6"/>
<path d="M527.289 703.968H217.703V932.693H527.289V703.968Z" fill="#F5F5F5"/>
<path d="M506.575 732.117H238.446V807.134H506.575V732.117Z" fill="#E6E6E6"/>
<path d="M506.575 829.527H238.446V904.544H506.575V829.527Z" fill="#E6E6E6"/>
<path d="M331.892 741.288H413.1C415.745 741.273 418.278 740.218 420.151 738.35C422.024 736.482 423.087 733.952 423.11 731.307V731.307C423.102 728.655 422.045 726.113 420.169 724.238C418.294 722.362 415.752 721.305 413.1 721.297H331.892C329.246 721.32 326.717 722.383 324.849 724.256C322.981 726.129 321.926 728.662 321.911 731.307V731.307C321.926 733.95 322.982 736.48 324.851 738.348C326.719 740.217 329.249 741.273 331.892 741.288V741.288Z" fill="#F5F5F5"/>
<path d="M331.892 838.698H413.1C415.752 838.69 418.294 837.633 420.169 835.757C422.045 833.882 423.102 831.34 423.11 828.688C423.087 826.043 422.024 823.513 420.151 821.645C418.278 819.777 415.745 818.722 413.1 818.707H331.892C329.249 818.722 326.719 819.778 324.851 821.647C322.982 823.515 321.926 826.045 321.911 828.688C321.926 831.333 322.981 833.866 324.849 835.739C326.717 837.612 329.246 838.675 331.892 838.698V838.698Z" fill="#F5F5F5"/>
<path d="M960.466 136.089H809.044V444.316H960.466V136.089Z" fill="#EBEBEB"/>
<path d="M957.197 136.089H796.893V444.316H957.197V136.089Z" fill="#F5F5F5"/>
<path d="M933.85 159.407H820.182V420.998H933.85V159.407Z" fill="white"/>
<path d="M1244.25 300.097H1161.33V395.626H1244.25V300.097Z" fill="#EBEBEB"/>
<path d="M1234.41 300.097H1144.55V395.626H1234.41V300.097Z" fill="#F5F5F5"/>
<path d="M1226.89 307.648H1152.1V388.104H1226.89V307.648Z" fill="white"/>
<path d="M1202.15 327.147H1176.81C1173.17 327.147 1170.21 330.1 1170.21 333.743V362.008C1170.21 365.651 1173.17 368.605 1176.81 368.605H1202.15C1205.8 368.605 1208.75 365.651 1208.75 362.008V333.743C1208.75 330.1 1205.8 327.147 1202.15 327.147Z" fill="#F0F0F0"/>
<path d="M1177.42 167.19H1094.5V262.719H1177.42V167.19Z" fill="#EBEBEB"/>
<path d="M1167.61 167.19H1077.75V262.719H1167.61V167.19Z" fill="#F5F5F5"/>
<path d="M1160.09 174.712H1085.3V255.168H1160.09V174.712Z" fill="white"/>
<path d="M1135.35 194.211H1110.01C1106.37 194.211 1103.41 197.164 1103.41 200.807V229.072C1103.41 232.715 1106.37 235.669 1110.01 235.669H1135.35C1138.99 235.669 1141.95 232.715 1141.95 229.072V200.807C1141.95 197.164 1138.99 194.211 1135.35 194.211Z" fill="#F0F0F0"/>
<path d="M723.264 1077.84C1033.06 1077.84 1284.2 1063.18 1284.2 1045.09C1284.2 1027 1033.06 1012.34 723.264 1012.34C413.469 1012.34 162.329 1027 162.329 1045.09C162.329 1063.18 413.469 1077.84 723.264 1077.84Z" fill="#F5F5F5"/>
<path d="M941.922 206.478H317.282V818.099H941.922V206.478Z" fill="#F7941D"/>
<path opacity="0.7" d="M941.922 206.478H317.282V818.099H941.922V206.478Z" fill="#4DC503"/>
<path d="M925.894 226.035H333.367V818.099H925.894V226.035Z" fill="white"/>
<path d="M941.922 809.478V818.099H627.128L695.173 750.112L788.85 656.377L941.922 809.478Z" fill="#F7941D"/>
<path opacity="0.7" d="M941.922 809.478V818.099H627.128L695.173 750.112L788.85 656.377L941.922 809.478Z" fill="#4DC503"/>
<path d="M317.282 818.099V759.312L510.827 565.766L763.16 818.099H317.282Z" fill="#F7941D"/>
<path opacity="0.7" d="M317.282 818.099V759.312L510.827 565.766L763.16 818.099H317.282Z" fill="#4DC503"/>
<path d="M827.032 418.127C835.495 365.987 800.088 316.857 747.948 308.394C695.807 299.93 646.678 335.337 638.214 387.478C629.75 439.618 665.158 488.748 717.298 497.211C769.439 505.675 818.568 470.268 827.032 418.127Z" fill="#F7941D"/>
<path opacity="0.7" d="M827.032 418.127C835.495 365.987 800.088 316.857 747.948 308.394C695.807 299.93 646.678 335.337 638.214 387.478C629.75 439.618 665.158 488.748 717.298 497.211C769.439 505.675 818.568 470.268 827.032 418.127Z" fill="#4DC503"/>
<path d="M502.525 194.446L443.053 803.169L1064.73 863.906L1124.2 255.183L502.525 194.446Z" fill="#F7941D"/>
<path opacity="0.1" d="M502.526 194.252L443.054 802.976L1064.73 863.713L1124.21 254.99L502.526 194.252Z" fill="#4DC503"/>
<path d="M516.637 215.475L459.067 804.734L1048.79 862.348L1106.36 273.09L516.637 215.475Z" fill="white"/>
<path d="M1054.86 238.228L1054.58 241.107L1075.25 243.127L1075.53 240.248L1054.86 238.228Z" fill="#F7941D"/>
<path d="M989.006 227.562L988.718 230.441L1039.56 235.524L1039.84 232.646L989.006 227.562Z" fill="#F7941D"/>
<path opacity="0.1" d="M1054.86 238.228L1054.58 241.107L1075.25 243.127L1075.53 240.248L1054.86 238.228Z" fill="#4DC503"/>
<path opacity="0.1" d="M989.006 227.562L988.718 230.441L1039.56 235.524L1039.84 232.646L989.006 227.562Z" fill="#4DC503"/>
<path opacity="0.1" d="M1065.54 855.275L1064.7 863.867L751.414 833.259L825.737 772.215L928.093 688.027L1065.54 855.275Z" fill="#4DC503"/>
<path d="M1065.54 855.275L1064.7 863.867L751.414 833.259L825.737 772.215L928.093 688.027L1065.54 855.275Z" fill="#F7941D"/>
<path opacity="0.1" d="M1065.54 855.275L1064.7 863.867L751.414 833.259L825.737 772.215L928.093 688.027L1065.54 855.275Z" fill="#4DC503"/>
<path opacity="0.1" d="M896.79 525.842C949.613 525.842 992.435 483.021 992.435 430.198C992.435 377.375 949.613 334.553 896.79 334.553C843.967 334.553 801.146 377.375 801.146 430.198C801.146 483.021 843.967 525.842 896.79 525.842Z" fill="#4DC503"/>
<path d="M896.79 525.842C949.613 525.842 992.435 483.021 992.435 430.198C992.435 377.375 949.613 334.553 896.79 334.553C843.967 334.553 801.146 377.375 801.146 430.198C801.146 483.021 843.967 525.842 896.79 525.842Z" fill="#F7941D"/>
<path opacity="0.1" d="M896.79 525.842C949.613 525.842 992.435 483.021 992.435 430.198C992.435 377.375 949.613 334.553 896.79 334.553C843.967 334.553 801.146 377.375 801.146 430.198C801.146 483.021 843.967 525.842 896.79 525.842Z" fill="#4DC503"/>
<path d="M846.969 275.231L223.659 315.975L263.554 926.294L886.864 885.55L846.969 275.231Z" fill="#F7941D"/>
<path d="M832.219 295.781L240.954 334.431L279.574 925.234L870.839 886.584L832.219 295.781Z" fill="white"/>
<path opacity="0.5" d="M846.969 275.231L223.659 315.975L263.554 926.294L886.864 885.55L846.969 275.231Z" fill="white"/>
<path d="M886.231 877.002L886.78 885.594L572.681 906.106L636.126 833.837L723.496 734.2L886.231 877.002Z" fill="#F7941D"/>
<path opacity="0.5" d="M886.231 877.002L886.78 885.594L572.681 906.106L636.126 833.837L723.496 734.2L886.231 877.002Z" fill="white"/>
<path d="M263.471 926.299L259.652 867.657L440.179 661.903L708.394 897.253L263.471 926.299Z" fill="#F7941D"/>
<path opacity="0.5" d="M263.471 926.299L259.652 867.657L440.179 661.903L708.394 897.253L263.471 926.299Z" fill="white"/>
<path d="M650.88 580.463C703.703 580.463 746.525 537.642 746.525 484.819C746.525 431.996 703.703 389.174 650.88 389.174C598.057 389.174 555.236 431.996 555.236 484.819C555.236 537.642 598.057 580.463 650.88 580.463Z" fill="#F7941D"/>
<path opacity="0.5" d="M650.88 580.463C703.703 580.463 746.525 537.642 746.525 484.819C746.525 431.996 703.703 389.174 650.88 389.174C598.057 389.174 555.236 431.996 555.236 484.819C555.236 537.642 598.057 580.463 650.88 580.463Z" fill="white"/>
<path d="M678 493.286H652.286V519H643.714V493.286H618V484.714H643.714V459H652.286V484.714H678V493.286Z" fill="black"/>
</svg>
