<svg width="197" height="181" viewBox="0 0 197 181" fill="none" xmlns="http://www.w3.org/2000/svg">
<path d="M160.062 181H36.9375C16.5359 181 0 165.807 0 147.062V33.9375C0 15.1929 16.5359 0 36.9375 0H160.062C180.464 0 197 15.1929 197 33.9375V147.062C197 165.807 180.464 181 160.062 181Z" fill="#E7E5E5"/>
<path d="M77.9752 71.6477C77.9752 75.8111 74.3003 79.1875 69.7688 79.1875C65.2373 79.1875 61.5625 75.8111 61.5625 71.6477C61.5625 67.4842 65.2373 64.1078 69.7688 64.1078C74.3003 64.1078 77.9752 67.4842 77.9752 71.6477Z" fill="#988064"/>
<path d="M88.2376 111.241C88.2376 96.5415 99.743 84.2831 114.913 81.6248V56.5625C114.913 50.3235 109.391 45.25 102.6 45.25H61.5625C54.772 45.25 49.25 50.3235 49.25 56.5625V109.352C49.25 115.591 54.772 120.665 61.5625 120.665H89.9059C88.8343 117.696 88.2376 114.534 88.2376 111.241ZM68.7032 91.1794C65.9948 88.6896 61.2303 88.6896 58.5219 91.1794L57.4563 92.1571V56.5625C57.4563 54.4815 59.2975 52.7898 61.5625 52.7898H102.606C104.871 52.7898 106.712 54.4815 106.712 56.5625V80.8446L103.591 77.9764C100.785 75.3983 96.2155 75.3983 93.4094 77.9764L73.875 95.9298L68.7032 91.1794Z" fill="#988064"/>
<path d="M121.075 86.7273C106.368 86.7273 94.3998 97.7236 94.3998 111.236C94.3998 124.748 106.362 135.75 121.075 135.75C135.788 135.75 147.75 124.754 147.75 111.241C147.75 97.7291 135.782 86.7273 121.075 86.7273ZM132.359 115.009H125.175V121.609C125.175 123.69 123.34 125.382 121.069 125.382C118.798 125.382 116.969 123.696 116.969 121.609V115.009H109.784C107.519 115.009 105.678 113.322 105.678 111.236C105.678 109.149 107.519 107.469 109.784 107.469H116.969V100.868C116.969 98.7869 118.804 97.0953 121.075 97.0953C123.346 97.0953 125.181 98.7814 125.181 100.868V107.469H132.359C134.624 107.469 136.466 109.155 136.466 111.241C136.466 113.328 134.63 115.009 132.359 115.009Z" fill="#4DC503"/>
</svg>
