<svg width="262" height="301" viewBox="0 0 262 301" fill="none" xmlns="http://www.w3.org/2000/svg">
<g clip-path="url(#clip0)">
<path d="M146.412 71.5288H144.799V26.2222C144.799 19.2677 142.104 12.598 137.307 7.68033C132.51 2.76271 126.003 8.7753e-06 119.219 0H25.5804C22.2211 -8.69002e-06 18.8947 0.678241 15.7912 1.99602C12.6876 3.31381 9.86769 5.24531 7.49234 7.68027C5.11698 10.1152 3.23274 13.0059 1.94721 16.1874C0.661669 19.3688 7.41769e-06 22.7786 0 26.2222V274.778C-3.179e-06 278.221 0.66164 281.631 1.94717 284.813C3.2327 287.994 5.11694 290.885 7.49229 293.32C9.86764 295.755 12.6876 297.686 15.7911 299.004C18.8947 300.322 22.221 301 25.5803 301H119.219C126.003 301 132.509 298.237 137.307 293.32C142.104 288.402 144.799 281.732 144.799 274.778V103.779H146.412V71.5288Z" fill="#F7941D"/>
<path d="M120.251 6.82206H108.028C108.59 8.23473 108.805 9.76742 108.653 11.2851C108.501 12.8028 107.987 14.2589 107.157 15.5252C106.327 16.7915 105.206 17.829 103.892 18.5465C102.579 19.2639 101.113 19.6392 99.6251 19.6394H45.9809C44.4926 19.6392 43.0271 19.2639 41.7136 18.5465C40.4002 17.829 39.2789 16.7915 38.4488 15.5252C37.6186 14.2589 37.105 12.8028 36.9531 11.2851C36.8012 9.76739 37.0158 8.23469 37.5779 6.82202H26.1617C21.0952 6.82202 16.2363 8.88516 12.6538 12.5576C9.07125 16.23 7.0586 21.2109 7.05859 26.4045V274.595C7.05859 279.789 9.07123 284.77 12.6537 288.442C16.2363 292.115 21.0952 294.178 26.1617 294.178H120.251C122.76 294.178 125.244 293.671 127.561 292.687C129.879 291.703 131.985 290.261 133.759 288.442C135.533 286.624 136.94 284.465 137.9 282.089C138.86 279.713 139.354 277.167 139.354 274.595V274.595V26.4045C139.354 23.8329 138.86 21.2865 137.9 18.9106C136.94 16.5348 135.533 14.376 133.759 12.5576C131.985 10.7392 129.879 9.29678 127.561 8.31267C125.244 7.32856 122.76 6.82205 120.251 6.82206V6.82206Z" fill="#E5E5E5"/>
<path d="M131.59 201.756H18.7737C18.2198 201.755 17.6888 201.529 17.2972 201.128C16.9055 200.726 16.6852 200.182 16.6846 199.614V170.927C16.6852 170.36 16.9055 169.815 17.2972 169.414C17.6888 169.012 18.2198 168.787 18.7737 168.786H131.59C132.144 168.787 132.675 169.012 133.066 169.414C133.458 169.815 133.678 170.36 133.679 170.927V199.615C133.678 200.182 133.458 200.727 133.066 201.128C132.674 201.529 132.143 201.755 131.59 201.756V201.756ZM18.7737 169.642C18.4413 169.643 18.1227 169.778 17.8877 170.019C17.6526 170.26 17.5205 170.587 17.5201 170.927V199.615C17.5205 199.955 17.6526 200.282 17.8877 200.523C18.1227 200.764 18.4413 200.899 18.7737 200.9H131.59C131.922 200.899 132.241 200.764 132.476 200.523C132.711 200.282 132.843 199.955 132.843 199.615V170.927C132.843 170.587 132.711 170.26 132.476 170.019C132.241 169.778 131.922 169.643 131.59 169.642H18.7737Z" fill="#F7941D"/>
<path d="M33.3985 194.265C38.2446 194.265 42.173 190.238 42.173 185.271C42.173 180.303 38.2446 176.276 33.3985 176.276C28.5525 176.276 24.624 180.303 24.624 185.271C24.624 190.238 28.5525 194.265 33.3985 194.265Z" fill="#F7941D"/>
<path d="M53.6629 179.274C53.2792 179.281 52.9135 179.442 52.6444 179.722C52.3754 180.003 52.2246 180.38 52.2246 180.773C52.2246 181.167 52.3754 181.544 52.6444 181.825C52.9135 182.105 53.2792 182.266 53.6629 182.272H122.606C122.994 182.28 123.369 182.13 123.648 181.854C123.928 181.578 124.089 181.2 124.096 180.802C124.104 180.405 123.957 180.021 123.688 179.734C123.419 179.447 123.05 179.282 122.662 179.275L122.654 179.274C122.638 179.274 122.622 179.274 122.606 179.274H53.6629Z" fill="#F7941D"/>
<path d="M53.6629 188.269C53.2792 188.276 52.9135 188.437 52.6444 188.717C52.3754 188.997 52.2246 189.375 52.2246 189.768C52.2246 190.162 52.3754 190.539 52.6444 190.82C52.9135 191.1 53.2792 191.261 53.6629 191.267H122.606C122.993 191.273 123.367 191.121 123.645 190.844C123.922 190.568 124.082 190.19 124.088 189.793C124.095 189.396 123.947 189.013 123.678 188.727C123.409 188.441 123.041 188.277 122.654 188.269C122.638 188.269 122.622 188.269 122.606 188.269H53.6629Z" fill="#F7941D"/>
<path d="M131.59 249.728H18.7737C18.2198 249.727 17.6888 249.502 17.2972 249.1C16.9055 248.699 16.6852 248.154 16.6846 247.586V218.9C16.6852 218.332 16.9055 217.788 17.2972 217.386C17.6888 216.985 18.2198 216.759 18.7737 216.758H131.59C132.144 216.759 132.675 216.985 133.066 217.386C133.458 217.788 133.678 218.332 133.679 218.9V247.587C133.678 248.155 133.458 248.699 133.066 249.1C132.674 249.502 132.143 249.727 131.59 249.728V249.728ZM18.7737 217.615C18.4413 217.615 18.1227 217.75 17.8877 217.991C17.6526 218.232 17.5205 218.559 17.5201 218.9V247.587C17.5205 247.928 17.6526 248.254 17.8877 248.495C18.1227 248.736 18.4413 248.872 18.7737 248.872H131.59C131.922 248.872 132.241 248.736 132.476 248.495C132.711 248.254 132.843 247.928 132.843 247.587V218.9C132.843 218.559 132.711 218.232 132.476 217.991C132.241 217.75 131.922 217.615 131.59 217.615H18.7737Z" fill="#F7941D"/>
<path d="M33.3985 242.237C38.2446 242.237 42.173 238.21 42.173 233.243C42.173 228.275 38.2446 224.248 33.3985 224.248C28.5525 224.248 24.624 228.275 24.624 233.243C24.624 238.21 28.5525 242.237 33.3985 242.237Z" fill="#F7941D"/>
<path d="M53.6629 227.247C53.2792 227.253 52.9135 227.414 52.6444 227.694C52.3754 227.975 52.2246 228.352 52.2246 228.746C52.2246 229.139 52.3754 229.516 52.6444 229.797C52.9135 230.077 53.2792 230.238 53.6629 230.245H122.606C122.993 230.25 123.367 230.098 123.645 229.822C123.922 229.545 124.082 229.167 124.088 228.77C124.095 228.373 123.947 227.99 123.678 227.704C123.409 227.419 123.041 227.254 122.654 227.247C122.638 227.246 122.622 227.246 122.606 227.247H53.6629Z" fill="#F7941D"/>
<path d="M53.6629 236.241C53.2792 236.248 52.9135 236.409 52.6444 236.689C52.3754 236.969 52.2246 237.347 52.2246 237.74C52.2246 238.134 52.3754 238.511 52.6444 238.792C52.9135 239.072 53.2792 239.233 53.6629 239.239H122.606C122.993 239.245 123.367 239.093 123.645 238.816C123.922 238.54 124.082 238.162 124.088 237.765C124.095 237.368 123.947 236.985 123.678 236.699C123.409 236.413 123.041 236.249 122.654 236.241C122.638 236.241 122.622 236.241 122.606 236.241H53.6629Z" fill="#F7941D"/>
<path d="M72.8076 142.226C62.2844 142.231 52.1905 137.95 44.7463 130.325C37.3022 122.701 33.1177 112.357 33.1133 101.57V101.536C33.1133 101.451 33.1133 101.361 33.1181 101.276C33.2392 78.992 51.0448 60.845 72.8076 60.845C83.3352 60.8437 93.4321 65.1296 100.877 72.7596C108.322 80.3897 112.505 90.739 112.506 101.531C112.508 112.323 108.327 122.673 100.883 130.305C93.4401 137.936 83.3442 142.225 72.8166 142.226H72.8076V142.226ZM72.8076 61.7007C62.5485 61.7242 52.7129 65.8968 45.4378 73.3117C38.1627 80.7267 34.0359 90.7851 33.9541 101.301C33.9497 101.392 33.9497 101.467 33.9497 101.535C33.9487 109.414 36.2271 117.117 40.4967 123.669C44.7663 130.221 50.8353 135.328 57.9363 138.344C65.0373 141.36 72.8514 142.15 80.3904 140.614C87.9294 139.078 94.8547 135.284 100.291 129.713C105.726 124.142 109.429 117.044 110.929 109.317C112.43 101.589 111.661 93.5784 108.72 86.2984C105.78 79.0185 100.799 72.7959 94.4087 68.4175C88.0182 64.0391 80.5046 61.7017 72.8181 61.7007H72.8076V61.7007Z" fill="#F7941D"/>
<path d="M127.137 191.426C136.05 191.426 143.275 184.019 143.275 174.882C143.275 165.745 136.05 158.339 127.137 158.339C118.224 158.339 110.998 165.745 110.998 174.882C110.998 184.019 118.224 191.426 127.137 191.426Z" fill="white"/>
<path d="M121.532 182.325C121.504 182.325 121.476 182.325 121.449 182.324H112.774C111.673 182.306 110.624 181.846 109.851 181.042C109.079 180.238 108.646 179.155 108.646 178.026C108.645 176.898 109.077 175.814 109.849 175.01C110.621 174.205 111.67 173.743 112.771 173.725H121.453C121.495 173.724 121.541 173.724 121.587 173.725C122.695 173.74 123.751 174.204 124.526 175.015C125.301 175.826 125.732 176.918 125.724 178.053C125.717 179.188 125.272 180.274 124.487 181.075C123.701 181.875 122.639 182.324 121.532 182.325V182.325Z" fill="#4DC503"/>
<path d="M262 299.993H131.265V300.92H262V299.993Z" fill="#3F3D56"/>
<path d="M139.32 221.572C139.217 221.408 139.132 221.234 139.065 221.051L136.982 215.333C136.74 214.665 136.766 213.925 137.054 213.277C137.343 212.629 137.87 212.124 138.522 211.874L185.018 194.076C185.669 193.828 186.39 193.854 187.023 194.15C187.656 194.446 188.148 194.987 188.392 195.654L190.475 201.373C190.595 201.704 190.651 202.056 190.639 202.408C190.627 202.761 190.547 203.108 190.404 203.429C190.261 203.75 190.058 204.04 189.806 204.28C189.554 204.521 189.258 204.708 188.935 204.832L142.44 222.629C141.88 222.843 141.266 222.855 140.698 222.663C140.131 222.471 139.645 222.086 139.32 221.572V221.572Z" fill="#4DC503"/>
<path d="M184.869 192.598L165.962 200.327C165.366 200.511 164.862 200.923 164.555 201.477C164.247 202.032 164.16 202.686 164.31 203.305L166.505 212.311C166.591 212.667 166.754 212.998 166.981 213.282C167.207 213.566 167.492 213.794 167.815 213.951C168.139 214.109 168.492 214.19 168.85 214.191C169.207 214.192 169.561 214.111 169.884 213.955L188.844 204.807C189.445 204.576 189.931 204.11 190.198 203.512C190.464 202.914 190.489 202.232 190.266 201.615L187.987 194.056C187.762 193.44 187.307 192.94 186.722 192.666C186.138 192.393 185.471 192.369 184.869 192.598V192.598Z" fill="#4E4B46"/>
<path d="M219.472 248.706C218.878 248.776 218.279 248.636 217.774 248.31C217.268 247.983 216.886 247.49 216.691 246.911L200.507 198.815C200.394 198.482 200.347 198.129 200.368 197.776C200.389 197.424 200.477 197.079 200.628 196.762C200.779 196.444 200.989 196.16 201.247 195.926C201.505 195.692 201.805 195.513 202.131 195.397L207.76 193.407C208.418 193.175 209.138 193.22 209.763 193.532C210.388 193.844 210.867 194.398 211.094 195.072L227.279 243.168C227.505 243.842 227.461 244.58 227.156 245.221C226.852 245.862 226.312 246.352 225.655 246.586L220.026 248.576C219.846 248.64 219.661 248.683 219.472 248.706V248.706Z" fill="#4DC503"/>
<path d="M212.3 194.249L218.511 214.12C218.752 214.708 218.763 215.368 218.541 215.964C218.319 216.56 217.882 217.046 217.321 217.32L209.146 221.314C208.823 221.472 208.47 221.554 208.113 221.555C207.755 221.557 207.402 221.477 207.078 221.321C206.754 221.165 206.468 220.938 206.24 220.656C206.012 220.373 205.847 220.042 205.759 219.687L200.582 198.872C200.374 198.25 200.415 197.569 200.696 196.977C200.976 196.386 201.474 195.933 202.08 195.717L209.219 192.711C209.826 192.496 210.492 192.538 211.07 192.826C211.647 193.115 212.09 193.626 212.3 194.249V194.249Z" fill="#4E4B46"/>
<path d="M193.492 300.266H187.538C186.842 300.265 186.176 299.982 185.684 299.478C185.192 298.974 184.916 298.29 184.915 297.578V246.7C184.916 245.988 185.192 245.304 185.684 244.8C186.176 244.296 186.842 244.013 187.538 244.012H193.492C194.188 244.013 194.854 244.296 195.346 244.8C195.838 245.304 196.114 245.988 196.115 246.7V297.578C196.114 298.29 195.838 298.974 195.346 299.478C194.854 299.982 194.188 300.265 193.492 300.266Z" fill="#4E4B46"/>
<path d="M205.271 300.266H199.316C198.621 300.265 197.954 299.982 197.462 299.478C196.971 298.974 196.694 298.29 196.693 297.578V246.7C196.694 245.988 196.971 245.304 197.462 244.8C197.954 244.296 198.621 244.013 199.316 244.012H205.271C205.966 244.013 206.633 244.296 207.124 244.8C207.616 245.304 207.893 245.988 207.893 246.7V297.578C207.893 298.29 207.616 298.974 207.124 299.478C206.633 299.982 205.966 300.265 205.271 300.266Z" fill="#4E4B46"/>
<path d="M210.178 252.682H183.121C182.372 252.681 181.654 252.376 181.125 251.833C180.596 251.29 180.298 250.554 180.297 249.787V204.729C180.297 200.283 182.02 196.019 185.087 192.875C188.153 189.731 192.313 187.965 196.65 187.965C200.987 187.965 205.146 189.731 208.213 192.875C211.28 196.019 213.003 200.283 213.003 204.729V249.787C213.002 250.554 212.704 251.29 212.174 251.833C211.645 252.376 210.927 252.681 210.178 252.682Z" fill="#CCCCCC"/>
<path d="M214.251 263.704H200.533V184.231L200.788 184.302C204.651 185.389 208.06 187.745 210.492 191.009C212.924 194.273 214.244 198.264 214.251 202.371V263.704Z" fill="#4E4B46"/>
<path d="M191.651 263.704H177.934V202.371C177.94 198.264 179.261 194.273 181.693 191.009C184.124 187.745 187.533 185.389 191.396 184.302L191.651 184.231V263.704Z" fill="#4E4B46"/>
<path d="M196.445 178.645C208.37 178.645 218.038 168.735 218.038 156.51C218.038 144.285 208.37 134.375 196.445 134.375C184.519 134.375 174.852 144.285 174.852 156.51C174.852 168.735 184.519 178.645 196.445 178.645Z" fill="#4DC503"/>
<path d="M220.858 151.414C220.858 151.414 222.068 117.086 206.333 128.253C206.333 128.253 197.255 97.0273 175.065 143.763L168.609 150.38C168.609 150.38 197.659 146.244 224.691 159.065L220.858 151.414Z" fill="#4E4B46"/>
<path d="M196.774 167.472C195.44 167.434 193.78 167.387 192.501 166.429C192.121 166.132 191.808 165.753 191.585 165.32C191.362 164.886 191.234 164.407 191.21 163.917C191.187 163.569 191.243 163.22 191.373 162.898C191.503 162.576 191.704 162.288 191.961 162.059C192.629 161.48 193.604 161.345 194.655 161.661L193.566 153.503L194.366 153.391L195.646 162.982L194.978 162.668C194.204 162.304 193.142 162.119 192.482 162.691C192.32 162.84 192.193 163.026 192.113 163.234C192.032 163.441 191.999 163.665 192.017 163.888C192.036 164.253 192.132 164.609 192.298 164.932C192.464 165.255 192.695 165.538 192.977 165.761C193.973 166.506 195.296 166.602 196.796 166.645L196.774 167.472Z" fill="#4E4B46"/>
<path d="M189.613 154.207H185.267V155.034H189.613V154.207Z" fill="#4E4B46"/>
<path d="M203.33 154.207H198.984V155.034H203.33V154.207Z" fill="#4E4B46"/>
<path d="M148.302 223.682C147.719 223.959 147.054 223.987 146.451 223.761C145.848 223.535 145.357 223.072 145.087 222.475L131.163 191.711C130.893 191.114 130.865 190.431 131.086 189.813C131.307 189.195 131.758 188.693 132.34 188.416C132.923 188.139 133.589 188.11 134.191 188.337C134.794 188.563 135.285 189.025 135.555 189.622L149.479 220.386C149.749 220.983 149.777 221.666 149.556 222.284C149.335 222.902 148.884 223.405 148.302 223.682Z" fill="#4E4B46"/>
<path d="M133.996 190.579C133.568 190.579 133.157 190.405 132.854 190.094C132.552 189.784 132.382 189.363 132.382 188.925V167.851H112.209C111.781 167.851 111.37 167.677 111.067 167.367C110.765 167.056 110.595 166.636 110.595 166.197C110.595 165.758 110.765 165.337 111.067 165.027C111.37 164.717 111.781 164.542 112.209 164.542H133.996C134.424 164.542 134.834 164.717 135.137 165.027C135.439 165.337 135.609 165.758 135.609 166.197V188.925C135.609 189.363 135.439 189.784 135.137 190.094C134.834 190.405 134.424 190.579 133.996 190.579V190.579Z" fill="#4DC503"/>
<path d="M134.377 192.918C130.903 194.57 127.028 195.129 123.244 194.524C119.459 193.92 115.934 192.178 113.115 189.52C110.296 186.862 108.31 183.406 107.406 179.59C106.503 175.775 106.724 171.77 108.041 168.083C109.358 164.396 111.712 161.192 114.805 158.877C117.899 156.561 121.592 155.238 125.419 155.074C129.246 154.91 133.035 155.914 136.305 157.957C139.576 160.001 142.182 162.992 143.794 166.554C145.95 171.331 146.169 176.789 144.404 181.732C142.638 186.674 139.032 190.697 134.377 192.918V192.918ZM120.114 161.403C117.508 162.642 115.319 164.646 113.824 167.16C112.329 169.675 111.595 172.588 111.715 175.53C111.834 178.472 112.802 181.312 114.497 183.69C116.191 186.068 118.535 187.878 121.232 188.89C123.93 189.903 126.86 190.073 129.652 189.378C132.443 188.684 134.971 187.157 136.916 184.989C138.861 182.822 140.135 180.112 140.578 177.203C141.02 174.293 140.611 171.314 139.402 168.643C137.778 165.064 134.834 162.292 131.218 160.934C127.602 159.577 123.609 159.745 120.114 161.403V161.403Z" fill="#4E4B46"/>
</g>
<defs>
<clipPath id="clip0">
<rect width="262" height="301" fill="white"/>
</clipPath>
</defs>
</svg>
